<svg data-name="Layer 1" xmlns="http://www.w3.org/2000/svg" viewBox="0 0 83.04 133.27"><path class="cls-1" d="M75.25 40.49h7.79v72.15h-7.79zm-32.7 7.79h21.8v56.57h-3.11V84.11H42.59v20.74H0v7.79h50.38V91.89h3.07v20.75h18.69V40.49H42.55v7.79z"/><path class="cls-1" d="M21.37 80.99h39.87V51.4h-7.79v21.8H21.37v7.79zM75.25 0h7.79v37.37h-7.79zM13.96 101.74h4.84l-2.42-2.43-2.42 2.43z"/><path class="cls-1" d="M31.73 84.11v9.84H7.79V29.6h3.11v7.81h7.79V21.79H10.9v.02H0v79.93h13.71l-3.5-3.49 3.62-3.62 2.55 2.55 2.55-2.55 3.62 3.62-3.49 3.49h20.45V84.11h-7.78z"/><path class="cls-1" d="M18.69 51.4v-3.12h20.74v-7.79H10.9v8.07l3.62-3.61 3.62 3.61-2.55 2.55 2.55 2.55-3.62 3.62-3.62-3.62v5.52h31.65v3.12H10.9v28.54h7.79V70.08h31.65V51.4H18.69z"/><path class="cls-1" d="M10.9 53.66l2.55-2.55-2.55-2.55v5.1zM64.35 0v29.6h-3.11v-7.78h-7.79v7.78h-3.12v-7.78h-7.79v7.78h-3.11v-7.78h-7.78v7.78h-3.11V18.69h12.65l-3.6-3.59 3.62-3.62 2.55 2.55 2.55-2.55 2.55 2.55 2.55-2.55 3.61 3.62-3.6 3.59h9.82V0h-7.79v10.91H28.54V7.79h21.8V0h-29.6v10.91H7.79V7.79h9.84V0H0v18.72h20.79v18.65h51.35V0zM3.89 18.71L.28 15.1l3.61-3.62 3.65 3.62z"/><path class="cls-1" d="M46.33 18.69h5.06l-2.53-2.53-2.53 2.53zm-5.1 0h5.06l-2.53-2.53-2.53 2.53zM16.81 83.05h11.8v7.79h-11.8zm-4.27 38.87a4.08 4.08 0 00-1-.17h-1a4.36 4.36 0 00-2.71.76 3 3 0 00-1 2.5v4a6.08 6.08 0 01-.66.07h-.91a4.59 4.59 0 01-1.8-.29 2.3 2.3 0 01-1-.77 2.61 2.61 0 01-.42-1.13 11 11 0 01-.09-1.44 6.49 6.49 0 010-.65l.06-.76a.43.43 0 00-.08-.36.38.38 0 00-.3-.12H1a.43.43 0 00-.44.42c0 .15-.06.32-.08.51s0 .36 0 .54v.88a8.21 8.21 0 00.22 1.94 3.39 3.39 0 002.27 2.49 6.59 6.59 0 002.31.34h1.46a11.36 11.36 0 001.29-.16.84.84 0 00.33-.13.44.44 0 00.14-.33v-4.94a2.6 2.6 0 01.14-.91 1.29 1.29 0 01.36-.55 1.66 1.66 0 01.6-.28 3.7 3.7 0 01.85-.09h.91v4.34a.52.52 0 00.11.32.42.42 0 00.32.14h.72a.42.42 0 00.34-.15.49.49 0 00.11-.31v-5.29a.42.42 0 00-.11-.31.64.64 0 00-.31-.11zm-6.57 9.63h-.58a.52.52 0 00-.34.12.43.43 0 00-.17.36v.77a.45.45 0 00.16.33.56.56 0 00.35.13h.58a.58.58 0 00.34-.13.45.45 0 00.16-.33v-.77a.43.43 0 00-.17-.36.52.52 0 00-.33-.12zm-2.51 0H2.9a.5.5 0 00-.34.12.43.43 0 00-.17.36v.77a.42.42 0 00.16.33.56.56 0 00.35.13h.56a.56.56 0 00.35-.13.42.42 0 00.16-.33v-.77a.45.45 0 00-.15-.36.56.56 0 00-.36-.12zm17.13-6.6v-.31a6.37 6.37 0 00-.24-1.56 3.35 3.35 0 00-.68-1.26 3.06 3.06 0 00-1.22-.82 5.11 5.11 0 00-1.82-.29h-.53a7.1 7.1 0 00-.77.07.47.47 0 00-.34.15.44.44 0 00-.11.3v.63a.39.39 0 00.11.28.51.51 0 00.37.09 3.93 3.93 0 01.52 0h.48a2.74 2.74 0 012 .62 2.69 2.69 0 01.64 1.9v1.74h-4.03a.45.45 0 00-.31.12.39.39 0 00-.15.31v.79a.36.36 0 00.15.31.5.5 0 00.31.1h5.11a.43.43 0 00.49-.44v-2.16c0-.2.03-.41.02-.57zm7.95 4.27h-.56a.57.57 0 00-.35.12.47.47 0 00-.17.37v.84a.45.45 0 00.17.34.52.52 0 00.35.14h.56a.49.49 0 00.36-.15.45.45 0 00.14-.33v-.83a.46.46 0 00-.15-.36.48.48 0 00-.35-.14zm-2.41 0h-.59a.47.47 0 00-.34.13.46.46 0 00-.15.36v.84a.5.5 0 00.49.48h.56a.49.49 0 00.36-.15.42.42 0 00.16-.33v-.83a.47.47 0 00-.16-.36.53.53 0 00-.33-.14zm2.19-1.29a.8.8 0 00.33-.25 1.19 1.19 0 00.12-.32c0-.24.05-.57.06-1V122a.45.45 0 00-.12-.31.42.42 0 00-.32-.14h-.74a.36.36 0 00-.31.15.45.45 0 00-.11.31v4.05c0 .29-.05.35-.05.35h-1.85a2.58 2.58 0 01-.42 0 .67.67 0 01-.26-.09.43.43 0 01-.14-.2 1.23 1.23 0 01-.06-.43v-7.87a.51.51 0 00-.11-.31.39.39 0 00-.32-.15h-.76a.43.43 0 00-.32.14.47.47 0 00-.12.32v8.16a2.93 2.93 0 00.14 1 1.37 1.37 0 00.44.65 1.5 1.5 0 00.69.34 4 4 0 00.9.09h2.95a1.88 1.88 0 00.38-.13zm9.07-10.54h-.76a.44.44 0 00-.44.45v8.57h-2.88v-4.44a.52.52 0 00-.11-.32.46.46 0 00-.32-.13h-.74a.44.44 0 00-.31.13.47.47 0 00-.12.32v7.21a1.6 1.6 0 01-.07.55.54.54 0 01-.19.26.76.76 0 01-.35.12 4.67 4.67 0 01-.57 0h-.17c-.27 0-.43.14-.43.38v.66c0 .11 0 .35.4.42h.48a3.77 3.77 0 001.29-.19 1.62 1.62 0 00.9-.78 2 2 0 00.24-.72 7.67 7.67 0 000-.88v-1h3.68a2.33 2.33 0 00.4-.08.7.7 0 00.32-.25 1.2 1.2 0 00.11-.32v-9.52a.45.45 0 00-.12-.31.41.41 0 00-.24-.13zm3.93-.01h-.78a.42.42 0 00-.32.14.48.48 0 00-.13.32v9.79a.48.48 0 00.13.32.45.45 0 00.32.14h.75a.42.42 0 00.32-.14.46.46 0 00.11-.32v-9.79a.44.44 0 00-.11-.31.39.39 0 00-.29-.15zm16.9 4.64a.47.47 0 00-.12-.32.44.44 0 00-.32-.13h-.73a.41.41 0 00-.31.14.43.43 0 00-.12.31v4.45h-5.21a7 7 0 01-1.87-.22 2.37 2.37 0 01-1.05-.6 1.87 1.87 0 01-.48-.91 5.9 5.9 0 01-.12-1.23V122.42a.44.44 0 00-.09-.37.39.39 0 00-.29-.11h-.65a.45.45 0 00-.46.42c-.05.31-.08.58-.1.81s0 .46 0 .68a6.75 6.75 0 00.24 1.7 2.94 2.94 0 00.8 1.36 3.77 3.77 0 001.55.85 8.53 8.53 0 002.47.29h5.96a2.33 2.33 0 00.45-.08.72.72 0 00.33-.25 1.19 1.19 0 00.12-.32 8.31 8.31 0 00.05-1v-3.52zm-5.6 7.2h-.66a.51.51 0 00-.35.13.45.45 0 00-.16.36v.84a.47.47 0 00.16.34.52.52 0 00.35.14h.66a.49.49 0 00.35-.15.41.41 0 00.16-.33v-.83a.45.45 0 00-.16-.36.51.51 0 00-.35-.14zm15.17-8.96h.6a.47.47 0 00.34-.13.44.44 0 00.17-.34v-.77a.5.5 0 00-.15-.37.51.51 0 00-.36-.14h-.6a.51.51 0 00-.36.14.5.5 0 00-.15.37v.77a.45.45 0 00.15.34.52.52 0 00.36.13zm1.28-1.98h.57a.54.54 0 00.34-.12.42.42 0 00.18-.36v-.69a.46.46 0 00-.16-.35.56.56 0 00-.35-.13h-.57a.53.53 0 00-.34.13.44.44 0 00-.17.35v.69a.45.45 0 00.16.36.52.52 0 00.34.12zm.72.74v.77a.44.44 0 00.17.35.57.57 0 00.35.12h.6a.51.51 0 00.35-.13.43.43 0 00.16-.34v-.77a.47.47 0 00-.16-.37.52.52 0 00-.35-.14h-.6a.52.52 0 00-.35.14.47.47 0 00-.17.37z"/><path class="cls-1" d="M78.3 117.39h-.76a.44.44 0 00-.44.45v8.57h-2.27l-.35-.05-.3-.1c-.07 0-.1-.06-.11-.09v-4.59a.47.47 0 00-.12-.32.44.44 0 00-.31-.13h-.73a.44.44 0 00-.31.13.41.41 0 00-.13.32v4.47a.26.26 0 01-.07.19.59.59 0 01-.23.14 1.65 1.65 0 01-.32.06h-.52a4.47 4.47 0 01-.75-.06c-.23 0-.3-.13-.33-.18v-4a.43.43 0 00-.12-.31.39.39 0 00-.31-.13h-.71a.43.43 0 00-.31.12.44.44 0 00-.13.32v3.89a.24.24 0 01-.07.19.56.56 0 01-.2.12 1.32 1.32 0 01-.3.07 1.57 1.57 0 01-.29 0h-.64l-.34-.05-.29-.1a.18.18 0 01-.1-.09v-3.52a.47.47 0 00-.12-.31.39.39 0 00-.31-.15h-.71a.39.39 0 00-.32.15.51.51 0 00-.11.31v3.33a.28.28 0 01-.07.2.55.55 0 01-.22.14 1.55 1.55 0 01-.31.06h-1.2a2.58 2.58 0 01-.42 0 .67.67 0 01-.26-.09.43.43 0 01-.14-.2 1.23 1.23 0 01-.06-.43v-7.87a.49.49 0 00-.11-.31.39.39 0 00-.32-.15h-.75a.42.42 0 00-.32.14.44.44 0 00-.13.32v8.16a3.24 3.24 0 00.14 1 1.37 1.37 0 00.44.65 1.5 1.5 0 00.69.34 4 4 0 00.9.09h1.57a3.17 3.17 0 00.51-.08l.51-.16a1.62 1.62 0 00.36-.21 2 2 0 00.81.36 4.45 4.45 0 00.92.1h.26a2.94 2.94 0 001.78-.47 2.49 2.49 0 00.8.37 4.4 4.4 0 001 .1h.29a4.84 4.84 0 001-.1 2.1 2.1 0 00.82-.36 2.4 2.4 0 00.9.36 5.33 5.33 0 001 .1h2.65a2.14 2.14 0 00.4-.08.7.7 0 00.32-.25 1.25 1.25 0 00.11-.31v-9.53a.45.45 0 00-.12-.31.41.41 0 00-.32-.23zm4.24.16a.39.39 0 00-.32-.15h-.75a.42.42 0 00-.32.14.48.48 0 00-.13.32v9.79a.48.48 0 00.13.32.45.45 0 00.32.14h.75a.42.42 0 00.32-.14.49.49 0 00.12-.32v-9.79a.45.45 0 00-.12-.31z"/></svg>